# xmcd CD database file
#
# Track frame offsets:
#	150
#	20927
#	39609
#	64273
#	83677
#	104986
#	126122
#	147381
#	162653
#	184770
#	207389
#
# Disc length: 2979 seconds
#
# Revision: 0
# Processed by: cddbd v1.5.2PL0 Copyright (c) Steve Scherf et al.
# Submitted via: CDex 1.51
#
DISCID=ad0ba10b
DTITLE=Terry - Por que creo en ti
DYEAR=2010
DGENRE=Salsa
TTITLE0=Necesito
TTITLE1=Ya En tendi
TTITLE2=Otro Dia Sin Ti
TTITLE3=Creo En Ti
TTITLE4=Feria De Cali
TTITLE5=Perdoname
TTITLE6=Venecia Sin Ti
TTITLE7=España
TTITLE8=La Gran Ciudad
TTITLE9=Trikitra
TTITLE10=Ya Entendi
EXTD=YEAR: 2010
EXTT0=
EXTT1=
EXTT2=
EXTT3=
EXTT4=
EXTT5=
EXTT6=
EXTT7=
EXTT8=
EXTT9=
EXTT10=
PLAYORDER=
